<svg version="1.1" xmlns="http://www.w3.org/2000/svg" xmlns:xlink="http://www.w3.org/1999/xlink">
  <!-- иконки социальных сетей и лого академии -->
  <symbol id="icon-twitter" viewBox="0 0 17.5 14.663"><path fill-rule="evenodd" clip-rule="evenodd" d="M11.283.153c1.736-.484 3.074.264 3.685 1.15.694-.225 1.372-.47 2.072-.69-.004.841-.538 1.478-.883 1.728.704.165 1.343-.481 1.343-.481-.175.977-1.035 1.746-1.611 1.977-.239 6.592-3.272 10.956-10.382 10.823h-.46c-.422 0-4.29-.45-5.047-1.843 2.341.192 4.011-.412 4.835-1.15-.989-.293-2.761-.464-3.07-2.881.362.105.583.223 1.228.117C1.757 8.067.385 7.366.461 5.218c.294.319 1.1.523 1.381.461C1.117 5.444-.188 2.398.921.843 2.794 2.655 4.769 4.364 8.29 4.528c.216-2.24 1.171-3.74 2.993-4.375z"/></symbol>
  <symbol id="icon-facebook" viewBox="0 0 8.672 18.944"><path d="M6.275 3.356h2.398V0H5.795C2.656.181 1.54 2.387 1.948 6.114H0v3.518h1.959v9.312h3.837V9.632h2.857V6.114H5.787c-.022-1.045-.037-2.405.488-2.758z"/></symbol>
  <symbol id="icon-youtube" viewBox="0 0 19.979 14.015"><path d="M17.145 0H2.835A2.842 2.842 0 000 2.835v8.345a2.842 2.842 0 002.835 2.835h14.31a2.842 2.842 0 002.835-2.835V2.835A2.844 2.844 0 0017.145 0zM7.036 10.392V3.623l6.769 3.384-6.769 3.385z"/></symbol>
  <symbol id="logo-htmlacademy" viewBox="0 0 26.943 34.09"><path d="M13.62.017L13.472 0 0 1.412v24.661l13.473 8.017 13.43-7.99.042-.025V1.412L13.62.017zm11.399 12.11L13.495 5.334l-.001-.104-.087.05-.088-.056v.109L1.925 12.118V3.147l11.548-1.212L25.02 3.147v8.98zm-11.614-5.34L24.923 13.5l-4.479 2.64-7.093-4.221-.014 1.415 5.904 3.513-.86.507-5.03-2.992-.014 1.415 3.827 2.275-.782.523-3.031-1.787-.014 1.413 1.853 1.091-1.8 1.081-11.356-6.751 11.371-6.835zm-11.48 8.34l11.411 6.791.016 1.044-7.942-4.728-.015 1.416 7.979 4.795.018 1.076-7.973-4.74-.013 1.414 8.021 4.822.046.025 8.143-4.872-.011-5.177 3.415-2.036v10.021L13.472 31.85 1.925 24.979v-9.852z"/></symbol>
  <!-- иконка оценка фотографии -->
  <symbol id="icon-like" viewBox="0 0 22 20"><path d="M12.383 3.646l-.637 2.929L11.219 9H19.9v2l.001.058L17 18H8V8.029l.014-.015 4.369-4.368M2 10v8-8M13.2 0L6.6 6.6c-.4.3-.6.8-.6 1.4v10c0 1.1.9 2 2 2h9c.8 0 1.5-.5 1.8-1.2l3-7.1c.1-.2.1-.5.1-.7V9h.1c0-1.1-.9-2-2-2h-6.3l1-4.6v-.3c0-.4-.2-.8-.4-1.1l-1.1-1zM4 8H0v12h4V8zm18 1v.044V9z"/></symbol>
  <!-- иконки в панели управления видео -->
  <symbol id="icon-video-replay" viewBox="0 0 16 20"><path d="M8 4V0L3 5l5 5V6c3.315 0 6 2.686 6 6s-2.685 6-6 6-6-2.686-6-6H0c0 4.42 3.58 8 8 8s8-3.58 8-8-3.58-8-8-8z"/></symbol>
  <symbol id="icon-video-subtitles" viewBox="0 0 32 20"><path d="M29 0H3C1.35 0 0 1.35 0 3v14c0 1.65 1.35 3 3 3h26c1.65 0 3-1.35 3-3V3c0-1.65-1.35-3-3-3zM14.403 15.854a8.61 8.61 0 01-1.678.164 5.986 5.986 0 01-1.976-.323c-.623-.214-1.172-.562-1.646-1.041s-.852-1.103-1.133-1.868c-.28-.766-.419-1.695-.419-2.786 0-1.134.157-2.085.471-2.851.315-.768.723-1.384 1.224-1.854a4.53 4.53 0 011.679-1.008 5.86 5.86 0 011.852-.307c.66 0 1.22.045 1.678.134.457.087.835.192 1.133.313l-.448 1.92a3.332 3.332 0 00-.902-.265A8.244 8.244 0 0012.973 6c-.915 0-1.649.325-2.206.977-.558.651-.836 1.663-.836 3.031 0 .598.067 1.142.199 1.632.132.493.334.913.603 1.26.271.349.607.619 1.01.812.402.193.867.29 1.396.29.496 0 .915-.049 1.257-.148.342-.099.639-.227.893-.38l.463 1.841c-.354.249-.803.43-1.349.539zm8.698 0a8.618 8.618 0 01-1.678.164 5.986 5.986 0 01-1.976-.323c-.623-.214-1.172-.562-1.646-1.041s-.852-1.103-1.133-1.868c-.281-.767-.421-1.695-.421-2.786 0-1.134.157-2.085.471-2.851.314-.768.723-1.384 1.223-1.854a4.526 4.526 0 011.68-1.008 5.858 5.858 0 011.851-.307c.661 0 1.221.045 1.678.134a6.05 6.05 0 011.133.313l-.446 1.918a3.314 3.314 0 00-.901-.265A8.569 8.569 0 0021.67 6c-.915 0-1.649.325-2.206.977-.558.651-.836 1.663-.836 3.031 0 .598.067 1.142.199 1.632.132.493.334.913.603 1.26.271.349.606.619 1.009.812.402.193.868.29 1.396.29.497 0 .915-.049 1.257-.148.342-.099.64-.227.894-.38l.463 1.841c-.353.249-.803.43-1.348.539z"/></symbol>
  <symbol id="icon-video-fullscreen" viewBox="0 0 20 20"><g><path d="M0 0v6h3V3h3V0H3zM3 14H0v6h6v-3H3zM17 0h-3v3h3v3h3V0zM17 17h-3v3h6v-6h-3z"/></g></symbol>
  <!-- иконки в форме отзыва -->
  <symbol id="icon-phone" viewBox="0 0 18 18"><path d="M3.6 7.8c1.4 2.8 3.8 5.1 6.6 6.6l2.2-2.2c.3-.3.699-.4 1-.2 1.1.4 2.3.6 3.6.6.6 0 1 .4 1 1V17c0 .6-.4 1-1 1C7.6 18 0 10.4 0 1c0-.6.4-1 1-1h3.5c.6 0 1 .4 1 1 0 1.2.2 2.4.6 3.6.1.3 0 .7-.2 1L3.6 7.8z"/></symbol>
  <symbol id="icon-mail" viewBox="0 0 16 16"><path d="M8 10c-.266 0-.5-.094-1-.336L0 6v7c0 .55.45 1 1 1h14c.55 0 1-.45 1-1V6L9 9.664c-.5.242-.734.336-1 .336zm7-8H1c-.55 0-1 .45-1 1v.758l8 4.205 8-4.205V3c0-.55-.45-1-1-1z"/></symbol>
  <symbol id="icon-tick" viewBox="0 0 23.049 16.249"><path d="M22.801 1.299L21.75.248a.853.853 0 00-1.203 0L8.693 12.102 2.502 5.911a.853.853 0 00-1.203 0L.248 6.962a.852.852 0 000 1.202l7.837 7.837a.845.845 0 00.608.246c.22.002.44-.079.608-.246l13.5-13.5a.852.852 0 000-1.202z"/></symbol>
  <!-- маркер на карте -->
  <symbol id="icon-map-marker" viewBox="0 0 27 27"><circle fill="#FFF" cx="13.5" cy="13.5" r="13.5"/><circle fill="#81B3D3" cx="13.5" cy="13.5" r="8.361"/></symbol>
</svg>
